<svg width="32" height="32" viewBox="0 0 32 32" fill="none" xmlns="http://www.w3.org/2000/svg">
<g clip-path="url(#clip0_217_2)">
<path d="M13 15C13 15.7956 13.3161 16.5587 13.8787 17.1213C14.4413 17.6839 15.2044 18 16 18C16.7956 18 17.5587 17.6839 18.1213 17.1213C18.6839 16.5587 19 15.7956 19 15C19 14.2044 18.6839 13.4413 18.1213 12.8787C17.5587 12.3161 16.7956 12 16 12C15.2044 12 14.4413 12.3161 13.8787 12.8787C13.3161 13.4413 13 14.2044 13 15Z" stroke="black" stroke-width="2.1" stroke-linecap="round" stroke-linejoin="round"/>
<path d="M21.657 22.8214L17.414 28.1251C17.039 28.5934 16.5306 28.8565 16.0005 28.8565C15.4704 28.8565 14.962 28.5934 14.587 28.1251L10.343 22.8214C9.22422 21.4228 8.46234 19.641 8.15369 17.7012C7.84504 15.7614 8.00349 13.7508 8.60901 11.9235C9.21452 10.0963 10.2399 8.53455 11.5555 7.43576C12.8711 6.33696 14.4178 5.75049 16 5.75049C17.5822 5.75049 19.1289 6.33696 20.4445 7.43576C21.7601 8.53455 22.7855 10.0963 23.391 11.9235C23.9965 13.7508 24.155 15.7614 23.8463 17.7012C23.5377 19.641 22.7758 21.4228 21.657 22.8214Z" stroke="black" stroke-width="2.1" stroke-linecap="round" stroke-linejoin="round"/>
</g>
<defs>
<clipPath id="clip0_217_2">
<rect width="24" height="30" fill="white" transform="translate(4 2)"/>
</clipPath>
</defs>
</svg>
