<svg xmlns="http://www.w3.org/2000/svg" viewBox="0 0 625.93 970.03"><defs><style>.cls-1{opacity:0.4;}.cls-2{fill:#bcbcbc;}</style></defs><title>touchScreen</title><g id="Capa_1" data-name="Capa 1" class="cls-1"><path class="cls-2" d="M447.46,985.73H651.21A157.18,157.18,0,0,0,808.39,828.55V590.25a53.39,53.39,0,0,0-106.78,0v-43.8a53.39,53.39,0,1,0-106.78,0V500.66a53.39,53.39,0,1,0-106.78,0V288.36a53.39,53.39,0,1,0-106.78,0V669.6L277.42,565.74a53.39,53.39,0,0,0-75.5,75.5l18.4,18.4a238.87,238.87,0,0,1,70,168.91A157.18,157.18,0,0,0,447.46,985.73Z" transform="translate(-182.46 -15.7)"/><path class="cls-2" d="M553.25,378.69a10,10,0,0,0,14.08-1.36,169.71,169.71,0,0,0,38.56-107.62c0-93.42-76-169.43-169.43-169.43S267,176.29,267,269.71a169.32,169.32,0,0,0,59.55,129,10,10,0,0,0,13-15.22A149.32,149.32,0,0,1,287,269.71c0-82.4,67-149.43,149.43-149.43s149.43,67,149.43,149.43a149.71,149.71,0,0,1-34,94.91A10,10,0,0,0,553.25,378.69Z" transform="translate(-182.46 -15.7)"/><path class="cls-2" d="M616.57,385.33A20,20,0,0,0,650.21,407a253.83,253.83,0,1,0-344.74,80.39,20,20,0,1,0,20.66-34.25A214.36,214.36,0,0,1,222.47,269.7c0-118,96-214,214-214s214,96,214,214a212.59,212.59,0,0,1-17.71,85.4,215.1,215.1,0,0,1-16.19,30.23Z" transform="translate(-182.46 -15.7)"/></g></svg>