<svg width="40" height="40" viewBox="0 0 40 40" fill="none" xmlns="http://www.w3.org/2000/svg">
<g clip-path="url(#clip0_75_57)">
<path d="M3.33331 21.6667C3.33331 23.8554 3.76441 26.0226 4.60199 28.0447C5.43957 30.0668 6.66722 31.9041 8.21487 33.4518C9.76251 34.9994 11.5998 36.2271 13.6219 37.0647C15.644 37.9022 17.8113 38.3333 20 38.3333C22.1887 38.3333 24.3559 37.9022 26.378 37.0647C28.4001 36.2271 30.2374 34.9994 31.7851 33.4518C33.3327 31.9041 34.5604 30.0668 35.398 28.0447C36.2355 26.0226 36.6666 23.8554 36.6666 21.6667C36.6666 19.478 36.2355 17.3107 35.398 15.2886C34.5604 13.2665 33.3327 11.4292 31.7851 9.88155C30.2374 8.33391 28.4001 7.10625 26.378 6.26867C24.3559 5.4311 22.1887 5 20 5C17.8113 5 15.644 5.4311 13.6219 6.26867C11.5998 7.10625 9.76251 8.33391 8.21487 9.88155C6.66722 11.4292 5.43957 13.2665 4.60199 15.2886C3.76441 17.3107 3.33331 19.478 3.33331 21.6667Z" fill="#FEB100" stroke="#FEB100" stroke-width="2.5" stroke-linecap="round" stroke-linejoin="round"/>
<path d="M15 16.6667C15 17.9927 15.5268 19.2645 16.4645 20.2022C17.4021 21.1399 18.6739 21.6667 20 21.6667C21.3261 21.6667 22.5979 21.1399 23.5355 20.2022C24.4732 19.2645 25 17.9927 25 16.6667C25 15.3406 24.4732 14.0688 23.5355 13.1311C22.5979 12.1934 21.3261 11.6667 20 11.6667C18.6739 11.6667 17.4021 12.1934 16.4645 13.1311C15.5268 14.0688 15 15.3406 15 16.6667Z" stroke="black" stroke-width="2.5" stroke-linecap="round" stroke-linejoin="round"/>
<path d="M10.28 31.415C10.6925 30.042 11.5366 28.8386 12.6871 27.9833C13.8376 27.1279 15.2331 26.6662 16.6667 26.6667H23.3334C24.7688 26.6662 26.166 27.129 27.3173 27.9863C28.4686 28.8436 29.3125 30.0496 29.7234 31.425" stroke="black" stroke-width="2.5" stroke-linecap="round" stroke-linejoin="round"/>
</g>
<defs>
<clipPath id="clip0_75_57">
<rect width="40" height="40" fill="white"/>
</clipPath>
</defs>
</svg>
