<svg width="32" height="32" viewBox="0 0 32 32" fill="none" xmlns="http://www.w3.org/2000/svg">
<path fill-rule="evenodd" clip-rule="evenodd" d="M24.5033 7.48922C22.2472 5.24037 19.2468 4.00126 16.0501 4C9.46351 4 4.10283 9.33693 4.1002 15.8969C4.09932 17.9938 4.6496 20.0407 5.69528 21.8449L4 28.0103L10.3348 26.3559C12.0802 27.3037 14.0453 27.8032 16.0453 27.804H16.0502C22.6362 27.804 27.9973 22.4664 28 15.9064C28.0013 12.7273 26.7595 9.73808 24.5033 7.48922ZM16.0502 25.7945H16.0462C14.264 25.7939 12.5159 25.3172 10.991 24.4162L10.6283 24.2018L6.86916 25.1836L7.87257 21.5345L7.63638 21.1604C6.64215 19.5859 6.11702 17.7661 6.1178 15.8976C6.11998 10.4453 10.5756 6.00944 16.0542 6.00944C18.707 6.01044 21.2008 7.04041 23.0761 8.90957C24.9513 10.7787 25.9834 13.2633 25.9824 15.9056C25.9801 21.3584 21.5246 25.7945 16.0502 25.7945ZM21.4983 18.3883C21.1997 18.2395 19.7317 17.5203 19.458 17.4211C19.1843 17.3219 18.9853 17.2723 18.7862 17.57C18.5872 17.8675 18.0149 18.5372 17.8407 18.7356C17.6666 18.934 17.4924 18.9588 17.1938 18.81C16.8952 18.6612 15.9332 18.3473 14.7927 17.3345C13.9051 16.5462 13.3058 15.5726 13.1316 15.275C12.9575 14.9774 13.1131 14.8165 13.2626 14.6683C13.3969 14.5351 13.5611 14.3211 13.7104 14.1475C13.8597 13.9739 13.9095 13.8499 14.009 13.6515C14.1085 13.4531 14.0588 13.2795 13.9841 13.1307C13.9095 12.9819 13.3124 11.5186 13.0635 10.9234C12.8212 10.3437 12.575 10.4222 12.3917 10.4131C12.2177 10.4045 12.0185 10.4026 11.8195 10.4026C11.6204 10.4026 11.2969 10.477 11.0232 10.7746C10.7495 11.0722 9.97823 11.7915 9.97823 13.2547C9.97823 14.7179 11.0481 16.1315 11.1974 16.3299C11.3467 16.5284 13.3029 19.5311 16.2981 20.8188C17.0105 21.1251 17.5666 21.308 18.0003 21.4451C18.7156 21.6713 19.3665 21.6394 19.881 21.5628C20.4546 21.4775 21.6475 20.8436 21.8964 20.1492C22.1452 19.4548 22.1452 18.8596 22.0705 18.7356C21.9959 18.6116 21.7968 18.5372 21.4983 18.3883Z" fill="#FEB100"/>
</svg>
