<svg id="Layer_1" data-name="Layer 1" xmlns="http://www.w3.org/2000/svg" viewBox="0 0 1367.28 1699.94"><defs><style>.cls-1{fill:#3c3c3b;}</style></defs><title>boxeo_icon_none</title><path class="cls-1" d="M1876.38,1696.53c-7.74-108.34-143.16-313.42-143.16-313.42s89,267,89,354.05c0,0-5.39,95.88-13,155.8-15.31,10.29-41,26.52-63.15,35.73-34.17,14.18-100.6,11.6-100.6,11.6s71.59,14.19,98,14.19c15.22,0,39.16-9.17,56.77-17-15.86,29-209.13,147.93-276,151.75-63.86,3.65-351.39-9.68-309.21-219.91,42.58,5.42,157,22.58,173.79,22.58l.69,0c.42,9.3,2.71,26.71,13.82,33.88,15.48,10,41,7.42,41,7.42s-14.51-6.77-23.86-13.22c-6-4.14-7.09-21.7-7.09-33.75,21.16-7.86,50.07-24.53,74.26-54,15.33,14.83,48.69,34.07,48.69,34.07,55,14.14,98.24-.49,98.24-.49-60.94,3.87-93.83-16.44-93.83-16.44l-36.93-40.22a196.67,196.67,0,0,0,14.68-30.4S1610.69,1654,1559.08,1416c0,0,19.36,216.68-63.83,330.83,0,0-44.49,102.54-108.34,108.34l-143-24.9c-17.29-26.33-43.58-68.53-63.78-110.72l13.18-22.57c13,53,41.75,93.53,51.06,105,15.48,19,152.84,21,152.84,21,57.4-33.53,53.53-113.49,53.53-113.49-74.58-150.26,3.87-344.37,3.87-344.37,43.85,18,58,61.91,58,61.91-12.9-63.2-49-92.87-49-92.87,52.88,29.67,73.51,99.31,73.51,99.31-3.87-72.22-51.51-154.83-72.22-159.6s-169,66.74-169,66.74L1199.25,1532l55.46-81.85s-18.06,27.09-56.47,130.27c-14.68,39.43-13.63,78.28-5.91,112.31q-8.57,7.15-18.07,14.06c-11.88-26.52-20.74-52.36-22.73-73.49,0,0-3.52,38.31,3.73,86.43-89.94,57.59-226.87,96.8-360.36,81.24-67.54-7.87-114.32-37.77-145.8-69.36-8.93-58.47,47.14-117.66,47.14-117.66-49.1,31-65.42,69.2-70.84,90.17-24-32.21-33-59.86-33-59.86l30.32-11s-44.5-37.4-44.5-41.28c0-3.16,24-4.17,32.88-4.43,19.87,4.6,48.63,6,83.41-7.6,68.36-26.66,59.76-112.64,59.76-112.64,23.65-24.51,39.66-64.92,39.66-64.92s156.71-69.65,179.92-107.37,66.75-249.57,66.75-249.57l146-.29c3.12,130.11,68.11,252.64,68.11,252.64-45.32,69.37-72.4,158.72-87.37,223.14-275.51-70.61-396.61,44.93-396.61,44.93,178.85-93.86,358.85-26.12,389.75-13.2-6.36,31.74-9,52.21-9,52.21,16.77-99.31,130.27-282.46,130.27-282.46,52.87-38.23,115.4-59.8,173.46-71.79,23.35,19.08,79.32,71.43,92.23,123.38,0,0-11.82-74.78-65.9-128.26a739.36,739.36,0,0,1,110-9.39c.34,8.41.45,13.19.45,13.19h55.13c41.27,39,70.62,101.25,70.62,101.25-10.26-61.55-49.86-122.65-65.65-145.09-13.81-124-93-308.27-93-308.27a378.58,378.58,0,0,0-81.18-10.24q-2.54-14.21-6-30.43c-13.48-62.75-41.51-159.9-98.46-266.46a1113.47,1113.47,0,0,1-59-128.53q-7.83,0-15.68-.11a1115.76,1115.76,0,0,0,56.68,122.55c57.13,106.89,85.23,204.32,98.75,267.23q3.88,18.06,6.9,35.73c-3.55.07-7.06.23-10.57.39-2-11.53-4.35-24.18-7.3-37.89-13.48-62.75-41.51-159.91-98.46-266.47a1121.16,1121.16,0,0,1-56.4-121.66q-15.24-.22-30.48-.65c16.54,43.92,37.29,89.29,62,135.58,55.23,103.33,82.46,197.47,95.59,258.25,2.71,12.6,4.9,24.19,6.75,34.92-59.41,6.17-112.66,22.74-151.33,38l50.89-184.32c76.1-73.52-33.53-109.63-152.19-104.47a519.6,519.6,0,0,1-95.27-5.11c10-34.44,31.87-79,75.73-134.87q16.67-21.22,30.57-41.89l-7.12-.55a119.92,119.92,0,0,0-12.53-.41q-13.79,20.25-29.24,40c-38.82,49.43-64.14,94.71-75.54,134.94q-5.64-1-11.22-2c9.66-34.74,31.53-80.06,76.35-137.13q14-17.79,26-35.23c-11.48.57-22.55,1-33-2.18q-7.24,9.94-15.13,20c-42.58,54.2-70,103.94-82,148.68-59-13.69-112.37-33.59-155.84-50C782.66,543.47,794.27,626,794.27,626c.47,5.44,4.59,11.06,11.64,16.79-18.55,62.91-55.82,197.92-56.79,296.62,0,0-213.45,170.9-238.61,385.64,0,0-3.87,123.83,20.32,164.45,0,0-16.45,34.82,37.73,75.45h-27.1s-11.6,39.66,34.83,59l-18.37,4.83s36.43,109,94.47,146.39,107,59.34,215.39,52.88c106.32-6.32,203.93-16.42,292.84-80.16,5.43,23.3,13.74,47.52,26.21,69.94-18.69,50.74-43,159.28,47.25,242.38,121.88,112.21,325,92.87,325,92.87s230.24-112.21,292.15-193.47C1851.23,1959.64,1884.12,1804.87,1876.38,1696.53ZM566.3,1487.6c-29.92-71.18-44.59-154.51-10.64-234.76,85.11-201.2,227-279.87,227-279.87-12.17-106.44,35.81-252.89,56.91-310.72,112.55,51.55,395.79,104.36,395.79,104.36l14.19,125.1,9-175.41C1021.26,748.55,760.73,583.46,878.1,626S1276.64,678.9,1287,694.38c9.24,13.86-12.59,196-17.25,233.8-38.89,15.43-62.77,29.31-62.77,29.31,177-65,325.07-32.89,325.07-32.89,40,57.18,53.65,207.31,58,281.81-169.24-4.7-308.24,63.2-308.24,63.2-47.35-49.79-70.93-154.35-81.86-224.4l7,0-7.69-40.3c-1.57.32-3.13.6-4.7.92-2.21-18.71-3-30.26-3-30.26-1.86,10.47-3.12,21-3.94,31.62-186.43,35.72-357.84-2.28-357.84-2.28,92.87,37.72,180.89,35.79,180.89,35.79s-33.85,210.88-66.74,244.73-149,88-149,88l-37.73-38.69s5.81,17.41,12.58,46.43-20.31,60.94-20.31,60.94L714.62,1416l20.31,40.63s15.48,94.15-63.84,109c-39.84,7.45-69.42-1.37-89-12C548.73,1513.2,555.7,1495.36,566.3,1487.6Z" transform="translate(-510.28 -454.43)"/></svg>