<svg id="Layer_1" data-name="Layer 1" xmlns="http://www.w3.org/2000/svg" xmlns:xlink="http://www.w3.org/1999/xlink" viewBox="0 0 2754 3564"><defs><style>.cls-1,.cls-15{fill:#fff;}.cls-1,.cls-2,.cls-7,.cls-8,.cls-9{fill-rule:evenodd;}.cls-1{filter:url(#luminosity-invert-noclip);}.cls-2{filter:url(#luminosity-noclip);}.cls-3{fill:none;clip-rule:evenodd;}.cls-4{mask:url(#mask);}.cls-5{clip-path:url(#clip-path);}.cls-6{mask:url(#mask-2);}.cls-7{fill:#54707d;}.cls-8{fill:#f8991d;stroke:#54707d;stroke-width:36px;}.cls-10,.cls-8{stroke-miterlimit:10;}.cls-10{stroke:#231f20;}.cls-11{font-size:12px;fill:#231f20;font-family:MyriadPro-Regular, Myriad Pro;}.cls-12{letter-spacing:-0.01em;}.cls-13{letter-spacing:-0.01em;}.cls-14{letter-spacing:0em;}.cls-15{font-size:1296px;font-family:Candara;}</style><filter id="luminosity-invert-noclip" x="58.63" y="241.67" width="2473.17" height="3255.4" filterUnits="userSpaceOnUse" color-interpolation-filters="sRGB"><feColorMatrix values="-1 0 0 0 1 0 -1 0 0 1 0 0 -1 0 1 0 0 0 1 0" result="invert"/><feFlood flood-color="#fff" result="bg"/><feBlend in="invert" in2="bg"/></filter><mask id="mask" x="58.63" y="241.67" width="2473.17" height="3255.4" maskUnits="userSpaceOnUse"><path class="cls-1" d="M996.53,1613.35l109.25-38.93c.6-.21,1.21-.4,1.82-.55l64.36-16.18c.46-.12.92-.21,1.38-.3l66.32-11.75q.78-.14,1.56-.21l82.69-8c.63-.06,1.27-.09,1.9-.09h62.12l86.4,3.52a18.25,18.25,0,0,1,2.09.2l87.4,12.93c.49.07,1,.16,1.45.27l51,11.48c.45.1.89.22,1.33.35l75.41,22.57c.48.14,1,.31,1.44.49l61.06,23.52a20.72,20.72,0,0,0,3.46,1l35.29,6.63a20.13,20.13,0,0,0,5,.3l2.65-.18a20.77,20.77,0,0,0,2.34-.29l12.83-2.4a19.16,19.16,0,0,0,3-.8l10-3.52a18.68,18.68,0,0,0,2.26-1l6.83-3.41a21.08,21.08,0,0,0,2-1.12l7.61-5a18.37,18.37,0,0,0,1.89-1.39l6.28-5.26a19.27,19.27,0,0,0,2.06-2l8.48-9.48a19.76,19.76,0,0,0,2.16-2.91l7.76-12.74a19.74,19.74,0,0,0,1.13-2.13l3.14-6.92,17.67-39.52,21.4-47.84,6-13.35a20.12,20.12,0,0,1,1.55-2.8l2.25-3.38a19.7,19.7,0,0,1,2.3-2.84l1.71-1.76a20,20,0,0,1,2.61-2.25l2.52-1.81a19.36,19.36,0,0,1,3.29-1.92l3.08-1.42a19.53,19.53,0,0,1,4.1-1.36l4.34-.94a19.69,19.69,0,0,1,4.19-.45h3a19.66,19.66,0,0,1,3.51.31l2.63.47a19.53,19.53,0,0,1,3.11.83l3.24,1.15a15.11,15.11,0,0,1,1.45.58l6.9,3.07a19.81,19.81,0,0,0,26.1-9.85l44.25-96.8,34.93-82.16,20.71-52.36,19.38-52.65,17.25-51.42,15.75-53,10.8-42.22,7-32.2,7.15-40.66L2190,899c0-.36.08-.71.1-1.07l1.86-26c0-.59,0-1.17,0-1.76l-.65-37.36a18.09,18.09,0,0,0-.16-2.2l-3.58-27.55a19.56,19.56,0,0,0-.4-2.16l-6-24.39a17.92,17.92,0,0,0-.74-2.36L2171,749.42a19.64,19.64,0,0,0-1.12-2.42l-11.44-20.92a19.38,19.38,0,0,0-1.48-2.32l-15.27-20.54a19.27,19.27,0,0,0-1.82-2.11L2122,683a20.24,20.24,0,0,0-2.1-1.83l-24.27-18.47a21.51,21.51,0,0,0-2-1.37l-23-13.32c-.42-.25-.86-.48-1.3-.69l-11.41-5.54-16.49-7c-.37-.16-.75-.31-1.13-.44l-22.21-7.87c-.43-.16-.87-.3-1.31-.42l-29.62-8.24c-.44-.12-.88-.22-1.32-.31l-33.14-6.81-1.17-.21-34.83-5-27.86-2.79-93.18-7.4-263.33-11.87-247.54-1.68L1172,584l-120.24,4.82-144.33,10-93.33,10.85a17,17,0,0,0-1.87.31l-46.55,10a18.89,18.89,0,0,0-2,.53l-45.55,14.81c-.57.18-1.14.4-1.69.63l-17.73,7.62c-.38.16-.76.34-1.12.52l-16.34,8.26c-.51.26-1,.54-1.5.85l-23.59,14.61c-.61.39-1.21.8-1.78,1.25L636,683.45a19.25,19.25,0,0,0-1.66,1.46l-15.9,15.61a19,19,0,0,0-1.35,1.47L607,714.16a20.5,20.5,0,0,0-1.42,1.94l-15.44,24a18.11,18.11,0,0,0-1.2,2.15l-7.64,15.91c-.22.45-.41.9-.59,1.36l-3.78,9.65c-.18.46-.34.92-.48,1.39l-5.66,18.38a19.16,19.16,0,0,0-.51,2L565,817.63c-.13.66-.22,1.34-.29,2l-2.33,25.05c-.06.61-.08,1.22-.08,1.83v31.6c0,.61,0,1.22.08,1.84l3.77,40.34c0,.38.08.76.14,1.14l4.31,28.36L576.77,982l10.16,43.29,15,53.52,22.76,69,18.24,49.5,23.79,59.75,30.78,72,13.58,30.42L746,1435h0a19.82,19.82,0,0,0,26,9.62l.36-.16,9.09-3.72a19.9,19.9,0,0,1,5.09-1.33l6.19-.76a20.25,20.25,0,0,1,4.47,0l1.52.16a20,20,0,0,1,3.07.57l2.68.72a19.25,19.25,0,0,1,3.66,1.38l3.88,1.92a20,20,0,0,1,3.48,2.19l2.54,2a19.07,19.07,0,0,1,2.46,2.29l1.49,1.65a20.06,20.06,0,0,1,1.83,2.38l1.5,2.28a18.31,18.31,0,0,1,1.37,2.44l2.21,4.68,14.23,31.82,24.31,54.36,6.76,15.11a20,20,0,0,0,1,2l9,15.3a19.13,19.13,0,0,0,2.19,3l7.21,8.23a19.15,19.15,0,0,0,2,2l7.45,6.36a18.83,18.83,0,0,0,2,1.52l7,4.6a20.23,20.23,0,0,0,3,1.61l15.52,6.69a19.91,19.91,0,0,0,4.4,1.32l18.7,3.29a20,20,0,0,0,3.62.3l6.17,0a19.29,19.29,0,0,0,3.14-.28l17.59-3a19.86,19.86,0,0,0,3-.73l5.18-1.73,1.12-.41Z"/></mask><clipPath id="clip-path"><polyline class="cls-3" points="1359.47 241.67 1639.15 247.44 1998.01 274.56 2263.58 353.41 2364.63 420.2 2440.27 502.59 2502.91 629.24 2528.32 754.58 2531.8 854.92 2528.37 916.34 2491.82 1119.67 2449 1258.9 2380.55 1434.43 2337.2 1532.43 2309.99 1591.1 2327.51 1600.08 2341.44 1624.58 2338.54 1644.17 2238.82 1867.14 2207.09 1938.9 2202.41 1958.49 2202.73 1983.08 2205.08 1993.9 2212.1 2011.62 2218.22 2022.42 2222.86 2030.55 2248.99 2080.19 2281.71 2154.77 2321.1 2280.9 2344.03 2423.95 2347.51 2506.61 2342.26 2608.07 2315.03 2756.49 2272.06 2882.43 2206.92 3009.99 2085.45 3169.94 2022.04 3228.66 1936.62 3281.08 1818.04 3317 1778.67 3322.87 1110.85 3322.87 1067.17 3319.9 1046.13 3357.11 1013.77 3400.8 989.1 3429.52 974.13 3443.67 958.76 3455.81 942.58 3467.14 921.96 3478.06 899.71 3486.95 873.82 3493.43 852.79 3497.07 633.15 3497.07 515.03 3497.07 432.11 3497.07 394.09 3491.4 371.84 3484.53 340.7 3469.97 320.88 3457.43 302.67 3441.25 279.62 3418.19 254.13 3387.85 232.29 3356.71 213.28 3325.97 198.72 3296.03 185.78 3265.29 179.84 3248.3 173.84 3229.29 164.13 3190.06 158.88 3158.71 156.45 3137.88 154.43 3106.93 155.44 3070.73 157.06 3045.25 163.53 3000.35 172.63 2961.32 193.19 2903 197.51 2893.02 208.29 2871.45 217.46 2853.65 224.47 2840.98 227.71 2832.08 229.87 2822.64 229.6 2802.68 225.28 2788.93 180.79 2689.43 157.39 2637.55 180.58 2627.17 150.72 2563.09 121.19 2492.03 92.07 2414.37 72.65 2343.18 62.4 2290.33 58.63 2232.08 60.18 2187.21 68.07 2140.39 82.22 2101.97 97.19 2074.46 119.44 2044.53 142.09 2023.09 166.76 2006.1 191.03 1992.35 221.32 1979 250.09 1969.29 308.34 1955.94 384.38 1947.85 497.64 1939.76 538.09 1938.15 528.85 1898.21 420.03 1654.89 412.85 1636.86 413.01 1620.84 417.83 1609.35 422.71 1603.23 427.48 1599.17 433.83 1595.54 438.84 1593.3 444.2 1590.91 351.61 1383.05 294.7 1231.05 252.84 1086.17 230.65 968.77 222.52 881.61 221.32 844.39 222.18 797.45 226.48 744.77 235.9 687.7 254.24 621.96 278.69 564.23 306.01 517.27 346.33 465.52 409.6 407.54 471.54 366.84 550.48 329.25 649.22 297.17 765.35 273.82 895.19 259.62 1042.67 249.57 1185.82 243.96"/></clipPath><filter id="luminosity-noclip" x="0" y="0" width="2754" height="3564" filterUnits="userSpaceOnUse" color-interpolation-filters="sRGB"><feFlood flood-color="#fff" result="bg"/><feBlend in="SourceGraphic" in2="bg"/></filter><mask id="mask-2" x="0" y="0" width="2754" height="3564" maskUnits="userSpaceOnUse"><path class="cls-2" d="M663,2632.86A502.48,502.48,0,0,1,860.53,2673a48.57,48.57,0,0,0,63.31-24.82l24.49-54.76a19.15,19.15,0,0,1,25.24-9.64l13.26,5.92c44.84-95.15,90.43-202.88,98.66-290.1,7.25-76.78-25.68-139.09-150.56-150.87-79.46-7.5-179.36-11.65-281-11.65-94.22,0-186.56,3.66-261.13,11.65C265.14,2162.44,232.6,2226.7,241,2305.12c9.19,85.72,54.25,190.83,98.67,284.39l12.77-5.7a19.14,19.14,0,0,1,25.23,9.64l24.49,54.76A48.57,48.57,0,0,0,465.48,2673,502.43,502.43,0,0,1,663,2632.86Z"/></mask></defs><title>pesaRusa_vector4.1</title><g class="cls-4"><g class="cls-5"><g class="cls-6"><rect width="2754" height="3564"/><path class="cls-7" d="M2214.84,2016.59c84.3,143.83,132.67,311.27,132.67,490,0,262.24-104,500.18-273,674.84-90.77,93.8-203.1,141.42-333.63,141.42H1012.91c-130.53,0-242.86-47.62-333.63-141.42-169-174.66-273-412.6-273-674.84,0-178.75,48.36-346.19,132.66-490,15.75-26.86,17.4-56.95,4.68-85.37l-128.38-287a36.87,36.87,0,0,1,18.6-48.63l10.37-4.63c-95.76-202.22-193.86-434.52-217-650.18-36.62-341.67,89.3-619.93,593.58-674,160.58-17.21,350.41-25.09,538.66-25.09,198.07,0,401.77,8.94,572.89,25.09,498.12,47,627.11,320.48,595.13,659.4C2506.76,1145.81,2407,1384.88,2310,1591.1l10,4.44a36.88,36.88,0,0,1,18.6,48.63l-128.38,287c-12.72,28.42-11.07,58.51,4.68,85.37Z"/><path class="cls-8" d="M1074.63,2838.75a504.15,504.15,0,0,1-72.88,604.92c-47.14,48.71-105.47,73.44-173.26,73.44h-378c-67.79,0-126.12-24.73-173.26-73.44a504.15,504.15,0,0,1-72.88-604.92,47.21,47.21,0,0,0,2.43-44.34l-66.67-149.07a19.15,19.15,0,0,1,9.65-25.25l5.39-2.4C105.39,2512.67,54.45,2392,42.44,2280c-19-177.43,46.38-321.94,308.26-350,83.39-8.94,182-13,279.73-13,102.86,0,208.64,4.64,297.51,13,258.68,24.41,325.67,166.43,309.06,342.43-10.77,114.07-62.59,238.22-113,345.31l5.17,2.31a19.15,19.15,0,0,1,9.65,25.25l-66.67,149.07a47.21,47.21,0,0,0,2.43,44.34Z"/></g><path class="cls-9" d="M1376.88,1536a967.53,967.53,0,0,1,380.37,77.36,93.51,93.51,0,0,0,121.91-47.79l47.16-105.44a36.87,36.87,0,0,1,48.6-18.58l.88.39a27.51,27.51,0,0,0,36.15-13.51c82.51-177,163.36-373.6,178.5-534.11,14-147.84-49.46-267.82-289.93-290.51-153-14.44-345.38-22.44-541-22.44-181.42,0-359.24,7.06-502.83,22.44C610.76,630.15,548.09,753.89,564.27,904.9c16.89,157.65,96.8,349.35,178.47,523.2a27.51,27.51,0,0,0,36.12,13.44h0a36.86,36.86,0,0,1,48.59,18.58l47.16,105.44a93.52,93.52,0,0,0,121.92,47.79A967.43,967.43,0,0,1,1376.88,1536Z"/></g></g><circle class="cls-10" cx="1377" cy="2454.71" r="750.39"/><text class="cls-11" transform="translate(1250 2431.63)"><tspan class="cls-12">L</tspan><tspan x="5.5" y="0">o</tspan><tspan class="cls-13" x="12.08" y="0">r</tspan><tspan class="cls-14" x="15.89" y="0">em ipsum</tspan></text><text class="cls-15" transform="translate(1007.3 2685.65)">4</text></svg>