<svg id="Layer_1" data-name="Layer 1" xmlns="http://www.w3.org/2000/svg" xmlns:xlink="http://www.w3.org/1999/xlink" viewBox="0 0 210 297"><defs><style>.cls-1,.cls-11{fill:#fff;}.cls-1,.cls-2,.cls-7,.cls-8,.cls-9{fill-rule:evenodd;}.cls-1{filter:url(#luminosity-invert-noclip);}.cls-2{filter:url(#luminosity-noclip);}.cls-3{fill:none;clip-rule:evenodd;}.cls-4{mask:url(#mask);}.cls-5{clip-path:url(#clip-path);}.cls-6{mask:url(#mask-2);}.cls-7{fill:#54707d;}.cls-8{fill:#f8991d;stroke:#54707d;stroke-width:3px;}.cls-10,.cls-8{stroke-miterlimit:10;}.cls-10{stroke:#231f20;}.cls-11{font-size:125px;font-family:Candara;}</style><filter id="luminosity-invert-noclip" x="4.92" y="16.83" width="200.17" height="263.48" filterUnits="userSpaceOnUse" color-interpolation-filters="sRGB"><feColorMatrix values="-1 0 0 0 1 0 -1 0 0 1 0 0 -1 0 1 0 0 0 1 0" result="invert"/><feFlood flood-color="#fff" result="bg"/><feBlend in="invert" in2="bg"/></filter><mask id="mask" x="4.92" y="16.83" width="200.17" height="263.48" maskUnits="userSpaceOnUse"><path class="cls-1" d="M80.83,127.85l8.84-3.15.15,0,5.2-1.31.12,0,5.36-.95.13,0,6.69-.64h5.18l7,.28.17,0,7.07,1,.12,0L131,124l.11,0,6.1,1.83.12,0,4.94,1.9a.9.9,0,0,0,.28.08l2.85.54a1.89,1.89,0,0,0,.41,0l.21,0,.19,0,1-.2a1.05,1.05,0,0,0,.24-.06l.8-.29.19-.07.55-.28.16-.09.62-.4a1.58,1.58,0,0,0,.15-.12l.51-.42a1.21,1.21,0,0,0,.16-.16l.69-.77a2,2,0,0,0,.17-.23l.63-1a.56.56,0,0,0,.09-.17l.26-.56,1.43-3.2,1.73-3.87.49-1.08.13-.23.18-.27a1.3,1.3,0,0,1,.18-.23l.14-.14a1.68,1.68,0,0,1,.21-.18l.21-.15a2.26,2.26,0,0,1,.26-.16l.25-.11a1.42,1.42,0,0,1,.33-.11l.36-.08a1.84,1.84,0,0,1,.33,0h.25l.29,0,.21,0,.25.07.26.09.12,0,.56.25a1.6,1.6,0,0,0,2.11-.8l3.58-7.84,2.83-6.65,1.68-4.23,1.56-4.26,1.4-4.17L175.06,82l.88-3.42.57-2.6.58-3.29.33-2.64a.28.28,0,0,1,0-.09l.15-2.1V67.7l-.05-3a1.1,1.1,0,0,0,0-.18l-.29-2.23a.57.57,0,0,0,0-.18l-.48-2-.06-.19-.77-2a.72.72,0,0,0-.09-.2L174.87,56l-.12-.19-1.24-1.66a1.19,1.19,0,0,0-.15-.18l-1.44-1.46-.17-.15-2-1.49-.16-.11-1.86-1.08-.11-.06-.92-.44-1.33-.57-.1,0L163.51,48l-.11,0-2.4-.66-.1,0-2.69-.55-.09,0-2.82-.4-2.25-.23-7.55-.6-21.31-1-20-.13L95,44.54l-9.73.39-11.68.81-7.55.87-.15,0-3.77.81-.16,0-3.69,1.2-.13.05-1.44.62-.09,0-1.32.67-.12.07-1.91,1.18-.15.1-1.48,1.17-.14.11L50.23,54a.43.43,0,0,0-.11.12l-.82,1-.12.16-1.25,1.94-.09.17-.62,1.29,0,.11-.3.78a.76.76,0,0,0,0,.11l-.46,1.49a.94.94,0,0,0,0,.16l-.43,2.17a.78.78,0,0,0,0,.16l-.19,2a.61.61,0,0,0,0,.14v2.56a.76.76,0,0,0,0,.15l.3,3.27s0,.06,0,.09l.35,2.29.5,2.61.82,3.51,1.22,4.33,1.84,5.58,1.48,4L54.14,99l2.49,5.82,1.1,2.46,2.82,6.11h0a1.59,1.59,0,0,0,2.1.78h0l.74-.3a1.46,1.46,0,0,1,.41-.11l.5-.06a1.45,1.45,0,0,1,.36,0l.12,0,.25,0,.22.06.3.11.31.16a1.67,1.67,0,0,1,.28.18l.21.16c.07,0,.13.12.2.18l.12.14a1.33,1.33,0,0,1,.14.19l.13.18.11.2.18.38,1.15,2.58,2,4.4.54,1.22s0,.11.08.16l.73,1.23a1.44,1.44,0,0,0,.18.25l.58.67.17.16.6.51.16.13.57.37.25.13,1.25.54a2.47,2.47,0,0,0,.36.11l1.51.26a1.53,1.53,0,0,0,.3,0h.49l.26,0,1.42-.24.24-.06.42-.14.09,0Z"/></mask><clipPath id="clip-path"><polyline class="cls-3" points="110.2 16.83 132.84 17.3 161.88 19.49 183.38 25.87 191.55 31.28 197.68 37.95 202.75 48.2 204.8 58.34 205.08 66.46 204.81 71.44 201.85 87.89 198.38 99.16 192.84 113.37 189.33 121.3 187.13 126.05 188.55 126.77 189.68 128.76 189.44 130.34 181.37 148.39 178.8 154.2 178.42 155.78 178.45 157.77 178.64 158.65 179.21 160.08 179.7 160.96 180.08 161.61 182.19 165.63 184.84 171.67 188.03 181.88 189.89 193.45 190.17 200.14 189.74 208.35 187.54 220.37 184.06 230.56 178.79 240.88 168.96 253.83 163.83 258.58 156.91 262.82 147.32 265.73 144.13 266.21 90.08 266.21 86.54 265.97 84.84 268.98 82.22 272.51 80.22 274.84 79.01 275.99 77.77 276.97 76.46 277.88 74.79 278.77 72.99 279.49 70.89 280.01 69.19 280.31 51.42 280.31 41.86 280.31 35.15 280.31 32.07 279.85 30.27 279.29 27.75 278.11 26.14 277.1 24.67 275.79 22.8 273.92 20.74 271.47 18.97 268.95 17.43 266.46 16.25 264.04 15.21 261.55 14.73 260.17 14.24 258.63 13.46 255.46 13.03 252.92 12.83 251.24 12.67 248.73 12.75 245.8 12.88 243.74 13.41 240.1 14.14 236.94 15.81 232.22 16.16 231.42 17.03 229.67 17.77 228.23 18.34 227.21 18.6 226.49 18.78 225.72 18.75 224.11 18.41 222.99 14.8 214.94 12.91 210.74 14.79 209.9 12.37 204.72 9.98 198.96 7.62 192.68 6.05 186.92 5.22 182.64 4.92 177.92 5.04 174.29 5.68 170.5 6.83 167.39 8.04 165.17 9.84 162.75 11.67 161.01 13.67 159.63 15.63 158.52 18.08 157.44 20.41 156.66 25.13 155.57 31.28 154.92 40.45 154.27 43.72 154.13 42.98 150.9 34.17 131.21 33.59 129.75 33.6 128.45 33.99 127.52 34.38 127.03 34.77 126.7 35.28 126.41 35.69 126.22 36.12 126.03 28.63 109.21 24.02 96.91 20.64 85.18 18.84 75.68 18.18 68.62 18.08 65.61 18.15 61.81 18.5 57.55 19.26 52.93 20.75 47.61 22.73 42.94 24.94 39.14 28.2 34.95 33.32 30.25 38.34 26.96 44.73 23.92 52.72 21.32 62.12 19.43 72.62 18.28 84.56 17.47 96.15 17.02"/></clipPath><filter id="luminosity-noclip" x="0.17" y="-2.73" width="222.9" height="288.45" filterUnits="userSpaceOnUse" color-interpolation-filters="sRGB"><feFlood flood-color="#fff" result="bg"/><feBlend in="SourceGraphic" in2="bg"/></filter><mask id="mask-2" x="0.17" y="-2.73" width="222.9" height="288.45" maskUnits="userSpaceOnUse"><path class="cls-2" d="M53.83,210.36a40.72,40.72,0,0,1,16,3.25,3.92,3.92,0,0,0,5.12-2l2-4.43a1.54,1.54,0,0,1,2-.78l1.07.48c3.63-7.7,7.32-16.42,8-23.48.58-6.21-2.08-11.26-12.19-12.21-6.43-.61-14.52-.94-22.74-.94a206.47,206.47,0,0,0-21.13.94c-10.34,1.11-13,6.31-12.29,12.66.74,6.93,4.39,15.44,8,23l1-.46a1.54,1.54,0,0,1,2,.78l2,4.43a3.93,3.93,0,0,0,5.13,2,40.67,40.67,0,0,1,16-3.25Z"/></mask></defs><title>pesaRusa_vector1</title><g class="cls-4"><g class="cls-5"><g class="cls-6"><rect x="0.17" y="-2.73" width="222.9" height="288.45"/><path class="cls-7" d="M179.43,160.48a78.57,78.57,0,0,1-11.36,94.28,36.34,36.34,0,0,1-27,11.45H82.15a36.34,36.34,0,0,1-27-11.45,78.57,78.57,0,0,1-11.36-94.28,7.36,7.36,0,0,0,.38-6.91L33.78,130.34a3,3,0,0,1,1.5-3.93l.84-.38c-7.75-16.37-15.69-35.17-17.56-52.62-3-27.65,7.23-50.18,48-54.55a425.12,425.12,0,0,1,43.6-2c16,0,32.52.72,46.37,2,40.31,3.81,50.75,25.94,48.16,53.37-1.67,17.78-9.75,37.13-17.6,53.82l.81.36a3,3,0,0,1,1.5,3.93l-10.39,23.23a7.36,7.36,0,0,0,.38,6.91Z"/><path class="cls-8" d="M87.15,227a40.81,40.81,0,0,1-5.9,49,18.85,18.85,0,0,1-14,5.95H36.63a18.82,18.82,0,0,1-14-5.95,40.77,40.77,0,0,1-5.9-49,3.81,3.81,0,0,0,.19-3.59l-5.39-12.07a1.54,1.54,0,0,1,.78-2l.44-.2c-4-8.5-8.15-18.26-9.12-27.32-1.54-14.36,3.75-26.06,25-28.33a221.08,221.08,0,0,1,22.64-1.06c8.32,0,16.88.38,24.07,1.06,20.94,2,26.36,13.47,25,27.71-.87,9.24-5.07,19.28-9.14,27.95l.42.19a1.56,1.56,0,0,1,.78,2L87,223.44a3.84,3.84,0,0,0,.2,3.59Z"/></g><path class="cls-9" d="M111.61,121.59a78.27,78.27,0,0,1,30.78,6.26,7.58,7.58,0,0,0,9.87-3.87l3.82-8.53a3,3,0,0,1,3.93-1.51l.07,0a2.23,2.23,0,0,0,2.93-1.09c6.68-14.33,13.22-30.24,14.45-43.23,1.13-12-4-21.67-23.47-23.51C141.61,45,126,44.32,110.2,44.32a398.52,398.52,0,0,0-40.7,1.82c-19.9,2.13-25,12.15-23.66,24.37,1.37,12.76,7.84,28.27,14.45,42.34a2.22,2.22,0,0,0,2.92,1.09h0a3,3,0,0,1,3.93,1.51L71,124a7.58,7.58,0,0,0,9.87,3.87,78.27,78.27,0,0,1,30.78-6.26Z"/></g></g><circle class="cls-10" cx="111.62" cy="195.94" r="60.73"/><text class="cls-11" transform="translate(87.04 227.31)">1</text></svg>